<svg xmlns="http://www.w3.org/2000/svg" viewBox="0 0 200 200" width="200" height="200" fill="none" role="img" aria-labelledby="title desc">
  <title id="title">OTE — Observatorios Técnicos Ecuador</title>
  <desc id="desc">Isotipo circular tipo instrumento de observación con marcas horarias y acrónimo OTE</desc>
  <circle cx="100" cy="100" r="82" stroke="#F5A623" stroke-width="2"/>
  <g stroke="#F5A623" stroke-width="2" stroke-linecap="round">
    <line x1="100" y1="10" x2="100" y2="24"/>
    <line x1="100" y1="10" x2="100" y2="24" transform="rotate(30 100 100)"/>
    <line x1="100" y1="10" x2="100" y2="24" transform="rotate(60 100 100)"/>
    <line x1="100" y1="10" x2="100" y2="24" transform="rotate(90 100 100)"/>
    <line x1="100" y1="10" x2="100" y2="24" transform="rotate(120 100 100)"/>
    <line x1="100" y1="10" x2="100" y2="24" transform="rotate(150 100 100)"/>
    <line x1="100" y1="10" x2="100" y2="24" transform="rotate(180 100 100)"/>
    <line x1="100" y1="10" x2="100" y2="24" transform="rotate(210 100 100)"/>
    <line x1="100" y1="10" x2="100" y2="24" transform="rotate(240 100 100)"/>
    <line x1="100" y1="10" x2="100" y2="24" transform="rotate(270 100 100)"/>
    <line x1="100" y1="10" x2="100" y2="24" transform="rotate(300 100 100)"/>
    <line x1="100" y1="10" x2="100" y2="24" transform="rotate(330 100 100)"/>
  </g>
  <text x="100" y="88" text-anchor="middle" font-family="'Segoe UI', system-ui, -apple-system, Arial, sans-serif" font-size="22" font-weight="700" fill="#F5A623" letter-spacing="3">OTE</text>
  <circle cx="100" cy="120" r="14" stroke="#F5A623" stroke-width="2"/>
</svg>
